<?xml version="1.0" encoding="UTF-8" standalone="no"?>
<!DOCTYPE svg PUBLIC "-//W3C//DTD SVG 1.1//EN"
 "http://www.w3.org/Graphics/SVG/1.1/DTD/svg11.dtd">
<!-- Generated by graphviz version 11.0.0 (20240428.1522)
 -->
<!-- Title: dependency&#45;cruiser output Pages: 1 -->
<svg width="556pt" height="1267pt"
 viewBox="0.00 0.00 556.00 1267.00" xmlns="http://www.w3.org/2000/svg" xmlns:xlink="http://www.w3.org/1999/xlink">
<g id="graph0" class="graph" transform="scale(1 1) rotate(0) translate(4 1263)">
<title>dependency&#45;cruiser output</title>
<polygon fill="white" stroke="none" points="-4,4 -4,-1263 552,-1263 552,4 -4,4"/>
<g id="clust1" class="cluster">
<title>cluster_src</title>
<path fill="#ffffff" stroke="black" stroke-width="2" d="M20,-8C20,-8 528,-8 528,-8 534,-8 540,-14 540,-20 540,-20 540,-1239 540,-1239 540,-1245 534,-1251 528,-1251 528,-1251 20,-1251 20,-1251 14,-1251 8,-1245 8,-1239 8,-1239 8,-20 8,-20 8,-14 14,-8 20,-8"/>
<text text-anchor="middle" x="274" y="-1238.45" font-family="Helvetica,sans-Serif" font-weight="bold" font-size="9.00">src</text>
</g>
<g id="clust2" class="cluster">
<title>cluster_src/objects</title>
<path fill="#ffffff" stroke="black" stroke-width="2" d="M28,-16C28,-16 520,-16 520,-16 526,-16 532,-22 532,-28 532,-28 532,-1212 532,-1212 532,-1218 526,-1224 520,-1224 520,-1224 28,-1224 28,-1224 22,-1224 16,-1218 16,-1212 16,-1212 16,-28 16,-28 16,-22 22,-16 28,-16"/>
<text text-anchor="middle" x="274" y="-1211.45" font-family="Helvetica,sans-Serif" font-weight="bold" font-size="9.00">objects</text>
</g>
<g id="clust3" class="cluster">
<title>cluster_src/objects/chat</title>
<path fill="#ffffff" stroke="black" stroke-width="2" d="M176.62,-891C176.62,-891 249.88,-891 249.88,-891 255.88,-891 261.88,-897 261.88,-903 261.88,-903 261.88,-934 261.88,-934 261.88,-940 255.88,-946 249.88,-946 249.88,-946 176.62,-946 176.62,-946 170.62,-946 164.62,-940 164.62,-934 164.62,-934 164.62,-903 164.62,-903 164.62,-897 170.62,-891 176.62,-891"/>
<text text-anchor="middle" x="213.25" y="-933.45" font-family="Helvetica,sans-Serif" font-weight="bold" font-size="9.00">chat</text>
</g>
<g id="clust4" class="cluster">
<title>cluster_src/objects/color</title>
<path fill="#ffffff" stroke="black" stroke-width="2" d="M55.62,-24C55.62,-24 236.25,-24 236.25,-24 242.25,-24 248.25,-30 248.25,-36 248.25,-36 248.25,-67 248.25,-67 248.25,-73 242.25,-79 236.25,-79 236.25,-79 55.62,-79 55.62,-79 49.62,-79 43.62,-73 43.62,-67 43.62,-67 43.62,-36 43.62,-36 43.62,-30 49.62,-24 55.62,-24"/>
<text text-anchor="middle" x="145.94" y="-66.45" font-family="Helvetica,sans-Serif" font-weight="bold" font-size="9.00">color</text>
</g>
<g id="clust5" class="cluster">
<title>cluster_src/objects/directive</title>
<path fill="#ffffff" stroke="black" stroke-width="2" d="M175.38,-1048C175.38,-1048 251.12,-1048 251.12,-1048 257.12,-1048 263.12,-1054 263.12,-1060 263.12,-1060 263.12,-1185 263.12,-1185 263.12,-1191 257.12,-1197 251.12,-1197 251.12,-1197 175.38,-1197 175.38,-1197 169.38,-1197 163.38,-1191 163.38,-1185 163.38,-1185 163.38,-1060 163.38,-1060 163.38,-1054 169.38,-1048 175.38,-1048"/>
<text text-anchor="middle" x="213.25" y="-1184.45" font-family="Helvetica,sans-Serif" font-weight="bold" font-size="9.00">directive</text>
</g>
<g id="clust6" class="cluster">
<title>cluster_src/objects/directive/drag</title>
<path fill="#ffffff" stroke="black" stroke-width="2" d="M183.38,-1084C183.38,-1084 243.12,-1084 243.12,-1084 249.12,-1084 255.12,-1090 255.12,-1096 255.12,-1096 255.12,-1158 255.12,-1158 255.12,-1164 249.12,-1170 243.12,-1170 243.12,-1170 183.38,-1170 183.38,-1170 177.38,-1170 171.38,-1164 171.38,-1158 171.38,-1158 171.38,-1096 171.38,-1096 171.38,-1090 177.38,-1084 183.38,-1084"/>
<text text-anchor="middle" x="213.25" y="-1157.45" font-family="Helvetica,sans-Serif" font-weight="bold" font-size="9.00">drag</text>
</g>
<g id="clust7" class="cluster">
<title>cluster_src/objects/drag</title>
<path fill="#ffffff" stroke="black" stroke-width="2" d="M288.25,-1053C288.25,-1053 512,-1053 512,-1053 518,-1053 524,-1059 524,-1065 524,-1065 524,-1127 524,-1127 524,-1133 518,-1139 512,-1139 512,-1139 288.25,-1139 288.25,-1139 282.25,-1139 276.25,-1133 276.25,-1127 276.25,-1127 276.25,-1065 276.25,-1065 276.25,-1059 282.25,-1053 288.25,-1053"/>
<text text-anchor="middle" x="400.12" y="-1126.45" font-family="Helvetica,sans-Serif" font-weight="bold" font-size="9.00">drag</text>
</g>
<g id="clust8" class="cluster">
<title>cluster_src/objects/game</title>
<path fill="#ffffff" stroke="black" stroke-width="2" d="M36,-89C36,-89 246.25,-89 246.25,-89 252.25,-89 258.25,-95 258.25,-101 258.25,-101 258.25,-481 258.25,-481 258.25,-487 252.25,-493 246.25,-493 246.25,-493 36,-493 36,-493 30,-493 24,-487 24,-481 24,-481 24,-101 24,-101 24,-95 30,-89 36,-89"/>
<text text-anchor="middle" x="141.12" y="-480.45" font-family="Helvetica,sans-Serif" font-weight="bold" font-size="9.00">game</text>
</g>
<g id="clust9" class="cluster">
<title>cluster_src/objects/game/card</title>
<path fill="#ffffff" stroke="black" stroke-width="2" d="M58.25,-97C58.25,-97 238.25,-97 238.25,-97 244.25,-97 250.25,-103 250.25,-109 250.25,-109 250.25,-171 250.25,-171 250.25,-177 244.25,-183 238.25,-183 238.25,-183 58.25,-183 58.25,-183 52.25,-183 46.25,-177 46.25,-171 46.25,-171 46.25,-109 46.25,-109 46.25,-103 52.25,-97 58.25,-97"/>
<text text-anchor="middle" x="148.25" y="-170.45" font-family="Helvetica,sans-Serif" font-weight="bold" font-size="9.00">card</text>
</g>
<g id="clust10" class="cluster">
<title>cluster_src/objects/game/character</title>
<path fill="#ffffff" stroke="black" stroke-width="2" d="M46.62,-191C46.62,-191 135.62,-191 135.62,-191 141.62,-191 147.62,-197 147.62,-203 147.62,-203 147.62,-265 147.62,-265 147.62,-271 141.62,-277 135.62,-277 135.62,-277 46.62,-277 46.62,-277 40.62,-277 34.62,-271 34.62,-265 34.62,-265 34.62,-203 34.62,-203 34.62,-197 40.62,-191 46.62,-191"/>
<text text-anchor="middle" x="91.12" y="-264.45" font-family="Helvetica,sans-Serif" font-weight="bold" font-size="9.00">character</text>
</g>
<g id="clust11" class="cluster">
<title>cluster_src/objects/game/dice</title>
<path fill="#ffffff" stroke="black" stroke-width="2" d="M68.12,-285C68.12,-285 114.12,-285 114.12,-285 120.12,-285 126.12,-291 126.12,-297 126.12,-297 126.12,-328 126.12,-328 126.12,-334 120.12,-340 114.12,-340 114.12,-340 68.12,-340 68.12,-340 62.12,-340 56.12,-334 56.12,-328 56.12,-328 56.12,-297 56.12,-297 56.12,-291 62.12,-285 68.12,-285"/>
<text text-anchor="middle" x="91.12" y="-327.45" font-family="Helvetica,sans-Serif" font-weight="bold" font-size="9.00">dice</text>
</g>
<g id="clust12" class="cluster">
<title>cluster_src/objects/game/sta</title>
<path fill="#ffffff" stroke="black" stroke-width="2" d="M59,-348C59,-348 123.25,-348 123.25,-348 129.25,-348 135.25,-354 135.25,-360 135.25,-360 135.25,-391 135.25,-391 135.25,-397 129.25,-403 123.25,-403 123.25,-403 59,-403 59,-403 53,-403 47,-397 47,-391 47,-391 47,-360 47,-360 47,-354 53,-348 59,-348"/>
<text text-anchor="middle" x="91.12" y="-390.45" font-family="Helvetica,sans-Serif" font-weight="bold" font-size="9.00">sta</text>
</g>
<g id="clust13" class="cluster">
<title>cluster_src/objects/game/stick</title>
<path fill="#ffffff" stroke="black" stroke-width="2" d="M44,-411C44,-411 138.25,-411 138.25,-411 144.25,-411 150.25,-417 150.25,-423 150.25,-423 150.25,-454 150.25,-454 150.25,-460 144.25,-466 138.25,-466 138.25,-466 44,-466 44,-466 38,-466 32,-460 32,-454 32,-454 32,-423 32,-423 32,-417 38,-411 44,-411"/>
<text text-anchor="middle" x="91.12" y="-453.45" font-family="Helvetica,sans-Serif" font-weight="bold" font-size="9.00">stick</text>
</g>
<g id="clust14" class="cluster">
<title>cluster_src/objects/nu</title>
<path fill="#ffffff" stroke="black" stroke-width="2" d="M182.12,-692C182.12,-692 480.38,-692 480.38,-692 486.38,-692 492.38,-698 492.38,-704 492.38,-704 492.38,-812 492.38,-812 492.38,-818 486.38,-824 480.38,-824 480.38,-824 182.12,-824 182.12,-824 176.12,-824 170.12,-818 170.12,-812 170.12,-812 170.12,-704 170.12,-704 170.12,-698 176.12,-692 182.12,-692"/>
<text text-anchor="middle" x="331.25" y="-811.45" font-family="Helvetica,sans-Serif" font-weight="bold" font-size="9.00">nu</text>
</g>
<g id="clust15" class="cluster">
<title>cluster_src/objects/nu/v1</title>
<path fill="#ffffff" stroke="black" stroke-width="2" d="M190.12,-740C190.12,-740 236.38,-740 236.38,-740 242.38,-740 248.38,-746 248.38,-752 248.38,-752 248.38,-783 248.38,-783 248.38,-789 242.38,-795 236.38,-795 236.38,-795 190.12,-795 190.12,-795 184.12,-795 178.12,-789 178.12,-783 178.12,-783 178.12,-752 178.12,-752 178.12,-746 184.12,-740 190.12,-740"/>
<text text-anchor="middle" x="213.25" y="-782.45" font-family="Helvetica,sans-Serif" font-weight="bold" font-size="9.00">v1</text>
</g>
<g id="clust16" class="cluster">
<title>cluster_src/objects/storage</title>
<path fill="#ffffff" stroke="black" stroke-width="2" d="M170.25,-954C170.25,-954 256.25,-954 256.25,-954 262.25,-954 268.25,-960 268.25,-966 268.25,-966 268.25,-1028 268.25,-1028 268.25,-1034 262.25,-1040 256.25,-1040 256.25,-1040 170.25,-1040 170.25,-1040 164.25,-1040 158.25,-1034 158.25,-1028 158.25,-1028 158.25,-966 158.25,-966 158.25,-960 164.25,-954 170.25,-954"/>
<text text-anchor="middle" x="213.25" y="-1027.45" font-family="Helvetica,sans-Serif" font-weight="bold" font-size="9.00">storage</text>
</g>
<g id="clust17" class="cluster">
<title>cluster_src/objects/tag</title>
<path fill="#ffffff" stroke="black" stroke-width="2" d="M187.88,-560C187.88,-560 359.62,-560 359.62,-560 365.62,-560 371.62,-566 371.62,-572 371.62,-572 371.62,-634 371.62,-634 371.62,-640 365.62,-646 359.62,-646 359.62,-646 187.88,-646 187.88,-646 181.88,-646 175.88,-640 175.88,-634 175.88,-634 175.88,-572 175.88,-572 175.88,-566 181.88,-560 187.88,-560"/>
<text text-anchor="middle" x="273.75" y="-633.45" font-family="Helvetica,sans-Serif" font-weight="bold" font-size="9.00">tag</text>
</g>
<!-- src/objects/Counter.ts -->
<g id="node1" class="node">
<title>src/objects/Counter.ts</title>
<g id="a_node1"><a xlink:href="src/objects/Counter.ts" xlink:title="Counter.ts">
<path fill="#ddfeff" stroke="black" d="M236.21,-520.62C236.21,-520.62 190.29,-520.62 190.29,-520.62 187.08,-520.62 183.88,-517.42 183.88,-514.21 183.88,-514.21 183.88,-507.79 183.88,-507.79 183.88,-504.58 187.08,-501.38 190.29,-501.38 190.29,-501.38 236.21,-501.38 236.21,-501.38 239.42,-501.38 242.62,-504.58 242.62,-507.79 242.62,-507.79 242.62,-514.21 242.62,-514.21 242.62,-517.42 239.42,-520.62 236.21,-520.62"/>
<text text-anchor="start" x="191.88" y="-508.07" font-family="Helvetica,sans-Serif" font-size="9.00">Counter.ts</text>
</a>
</g>
</g>
<!-- src/objects/Event.ts -->
<g id="node2" class="node">
<title>src/objects/Event.ts</title>
<g id="a_node2"><a xlink:href="src/objects/Event.ts" xlink:title="Event.ts">
<path fill="#ddfeff" stroke="black" d="M233.83,-683.62C233.83,-683.62 192.67,-683.62 192.67,-683.62 189.46,-683.62 186.25,-680.42 186.25,-677.21 186.25,-677.21 186.25,-670.79 186.25,-670.79 186.25,-667.58 189.46,-664.38 192.67,-664.38 192.67,-664.38 233.83,-664.38 233.83,-664.38 237.04,-664.38 240.25,-667.58 240.25,-670.79 240.25,-670.79 240.25,-677.21 240.25,-677.21 240.25,-680.42 237.04,-683.62 233.83,-683.62"/>
<text text-anchor="start" x="197.12" y="-671.08" font-family="Helvetica,sans-Serif" font-size="9.00">Event.ts</text>
</a>
</g>
</g>
<!-- src/objects/nu/TagFactory.ts -->
<g id="node3" class="node">
<title>src/objects/nu/TagFactory.ts</title>
<g id="a_node3"><a xlink:href="src/objects/nu/TagFactory.ts" xlink:title="TagFactory.ts">
<path fill="#ddfeff" stroke="black" d="M363.96,-765.62C363.96,-765.62 306.04,-765.62 306.04,-765.62 302.83,-765.62 299.62,-762.42 299.62,-759.21 299.62,-759.21 299.62,-752.79 299.62,-752.79 299.62,-749.58 302.83,-746.38 306.04,-746.38 306.04,-746.38 363.96,-746.38 363.96,-746.38 367.17,-746.38 370.38,-749.58 370.38,-752.79 370.38,-752.79 370.38,-759.21 370.38,-759.21 370.38,-762.42 367.17,-765.62 363.96,-765.62"/>
<text text-anchor="start" x="307.62" y="-753.08" font-family="Helvetica,sans-Serif" font-size="9.00">TagFactory.ts</text>
</a>
</g>
</g>
<!-- src/objects/Event.ts&#45;&gt;src/objects/nu/TagFactory.ts -->
<g id="edge1" class="edge">
<title>src/objects/Event.ts&#45;&gt;src/objects/nu/TagFactory.ts</title>
<path fill="none" stroke="#000000" stroke-width="2" stroke-opacity="0.200000" d="M240.57,-675.63C250.5,-677.57 261.1,-681.43 268.25,-689 279.8,-701.24 266.04,-712.63 276.25,-726 281.19,-732.46 287.91,-737.66 295.03,-741.8"/>
<polygon fill="#000000" fill-opacity="0.200000" stroke="#000000" stroke-width="2" stroke-opacity="0.200000" points="293.87,-743.56 300.16,-744.48 295.81,-739.84 293.87,-743.56"/>
</g>
<!-- src/objects/tag/Legend.ts -->
<g id="node4" class="node">
<title>src/objects/tag/Legend.ts</title>
<g id="a_node4"><a xlink:href="src/objects/tag/Legend.ts" xlink:title="Legend.ts">
<path fill="#ddfeff" stroke="black" d="M357.21,-618.62C357.21,-618.62 312.79,-618.62 312.79,-618.62 309.58,-618.62 306.38,-615.42 306.38,-612.21 306.38,-612.21 306.38,-605.79 306.38,-605.79 306.38,-602.58 309.58,-599.38 312.79,-599.38 312.79,-599.38 357.21,-599.38 357.21,-599.38 360.42,-599.38 363.62,-602.58 363.62,-605.79 363.62,-605.79 363.62,-612.21 363.62,-612.21 363.62,-615.42 360.42,-618.62 357.21,-618.62"/>
<text text-anchor="start" x="314.38" y="-606.08" font-family="Helvetica,sans-Serif" font-size="9.00">Legend.ts</text>
</a>
</g>
</g>
<!-- src/objects/Event.ts&#45;&gt;src/objects/tag/Legend.ts -->
<g id="edge2" class="edge">
<title>src/objects/Event.ts&#45;&gt;src/objects/tag/Legend.ts</title>
<path fill="none" stroke="#000000" stroke-width="2" stroke-opacity="0.200000" d="M240.72,-666.8C250.55,-662.95 261.05,-657.25 268.25,-649 276.2,-639.89 267.45,-631.29 276.25,-623 282.1,-617.5 289.73,-614.05 297.52,-611.91"/>
<polygon fill="#000000" fill-opacity="0.200000" stroke="#000000" stroke-width="2" stroke-opacity="0.200000" points="297.58,-614.04 303,-610.71 296.69,-609.94 297.58,-614.04"/>
</g>
<!-- src/objects/nu/Tag.ts -->
<g id="node5" class="node">
<title>src/objects/nu/Tag.ts</title>
<g id="a_node5"><a xlink:href="src/objects/nu/Tag.ts" xlink:title="Tag.ts">
<path fill="#ddfeff" stroke="black" d="M477.96,-765.62C477.96,-765.62 436.79,-765.62 436.79,-765.62 433.58,-765.62 430.38,-762.42 430.38,-759.21 430.38,-759.21 430.38,-752.79 430.38,-752.79 430.38,-749.58 433.58,-746.38 436.79,-746.38 436.79,-746.38 477.96,-746.38 477.96,-746.38 481.17,-746.38 484.38,-749.58 484.38,-752.79 484.38,-752.79 484.38,-759.21 484.38,-759.21 484.38,-762.42 481.17,-765.62 477.96,-765.62"/>
<text text-anchor="start" x="444.62" y="-753.08" font-family="Helvetica,sans-Serif" font-size="9.00">Tag.ts</text>
</a>
</g>
</g>
<!-- src/objects/Event.ts&#45;&gt;src/objects/nu/Tag.ts -->
<g id="edge3" class="edge">
<title>src/objects/Event.ts&#45;&gt;src/objects/nu/Tag.ts</title>
<path fill="none" stroke="#000000" stroke-width="2" stroke-opacity="0.200000" d="M240.54,-676.65C286.96,-681.39 379.21,-691.09 385.75,-694 408.81,-704.25 429.79,-724.75 442.78,-739.37"/>
<polygon fill="#000000" fill-opacity="0.200000" stroke="#000000" stroke-width="2" stroke-opacity="0.200000" points="441.01,-740.53 446.52,-743.71 444.2,-737.79 441.01,-740.53"/>
</g>
<!-- src/objects/nu/TagFactory.ts&#45;&gt;src/objects/nu/Tag.ts -->
<g id="edge36" class="edge">
<title>src/objects/nu/TagFactory.ts&#45;&gt;src/objects/nu/Tag.ts</title>
<g id="a_edge36"><a xlink:title="no&#45;circular">
<path fill="none" stroke="orange" stroke-width="2" d="M370.82,-751.88C383.51,-751.48 398.04,-751.4 411.48,-751.63"/>
<polygon fill="orange" stroke="orange" stroke-width="2" points="420.96,-754.03 427.03,-752.11 421.09,-749.83 420.96,-754.03"/>
<polyline fill="none" stroke="orange" stroke-width="2" points="420.03,-751.9 417.03,-751.8"/>
<ellipse fill="none" stroke="orange" stroke-width="2" cx="413.63" cy="-751.7" rx="2.4" ry="2.4"/>
</a>
</g>
<text text-anchor="middle" x="378.84" y="-742.96" font-family="Helvetica,sans-Serif" font-size="9.00" fill="orange">no&#45;circular</text>
</g>
<!-- src/objects/Inator.ts -->
<g id="node6" class="node">
<title>src/objects/Inator.ts</title>
<g id="a_node6"><a xlink:href="src/objects/Inator.ts" xlink:title="Inator.ts">
<path fill="#ddfeff" stroke="black" d="M355.58,-856.62C355.58,-856.62 314.42,-856.62 314.42,-856.62 311.21,-856.62 308,-853.42 308,-850.21 308,-850.21 308,-843.79 308,-843.79 308,-840.58 311.21,-837.38 314.42,-837.38 314.42,-837.38 355.58,-837.38 355.58,-837.38 358.79,-837.38 362,-840.58 362,-843.79 362,-843.79 362,-850.21 362,-850.21 362,-853.42 358.79,-856.62 355.58,-856.62"/>
<text text-anchor="start" x="318.5" y="-844.08" font-family="Helvetica,sans-Serif" font-size="9.00">Inator.ts</text>
</a>
</g>
</g>
<!-- src/objects/nu/TagFactory.ts&#45;&gt;src/objects/Inator.ts -->
<g id="edge35" class="edge">
<title>src/objects/nu/TagFactory.ts&#45;&gt;src/objects/Inator.ts</title>
<g id="a_edge35"><a xlink:title="no&#45;circular">
<path fill="none" stroke="orange" stroke-width="2" d="M299.25,-757.18C287.14,-759.74 275.78,-765.35 272.25,-777 269.42,-786.36 269.42,-811.64 272.25,-821 273.18,-824.07 273.71,-825.05 276.25,-827 280.46,-830.24 285.23,-832.97 290.19,-835.27"/>
<polygon fill="orange" stroke="orange" stroke-width="2" points="298.55,-840.57 304.91,-840.66 299.99,-836.63 298.55,-840.57"/>
<polyline fill="none" stroke="orange" stroke-width="2" points="298.33,-838.26 295.52,-837.22"/>
<ellipse fill="none" stroke="orange" stroke-width="2" cx="292.32" cy="-836.06" rx="2.4" ry="2.4"/>
</a>
</g>
<text text-anchor="middle" x="248.38" y="-791.26" font-family="Helvetica,sans-Serif" font-size="9.00" fill="orange">no&#45;circular</text>
</g>
<!-- src/objects/tag/Legend.ts&#45;&gt;src/objects/nu/TagFactory.ts -->
<g id="edge43" class="edge">
<title>src/objects/tag/Legend.ts&#45;&gt;src/objects/nu/TagFactory.ts</title>
<path fill="none" stroke="#000000" stroke-width="2" stroke-opacity="0.200000" d="M306.12,-608.57C291.69,-610.15 276.42,-615.21 272.25,-629 268.97,-639.85 268.97,-720.15 272.25,-731 275.01,-740.11 282.32,-745.95 291.03,-749.69"/>
<polygon fill="#000000" fill-opacity="0.200000" stroke="#000000" stroke-width="2" stroke-opacity="0.200000" points="290.11,-751.59 296.47,-751.57 291.48,-747.63 290.11,-751.59"/>
</g>
<!-- src/objects/tag/Legend.ts&#45;&gt;src/objects/nu/Tag.ts -->
<g id="edge42" class="edge">
<title>src/objects/tag/Legend.ts&#45;&gt;src/objects/nu/Tag.ts</title>
<path fill="none" stroke="#000000" stroke-width="2" stroke-opacity="0.200000" d="M363.95,-612.7C371.63,-614.77 379.53,-617.99 385.75,-623 423.22,-653.2 443.32,-708.74 451.66,-737.56"/>
<polygon fill="#000000" fill-opacity="0.200000" stroke="#000000" stroke-width="2" stroke-opacity="0.200000" points="449.53,-737.76 453.15,-742.99 453.58,-736.65 449.53,-737.76"/>
</g>
<!-- src/objects/nu/Tag.ts&#45;&gt;src/objects/nu/TagFactory.ts -->
<g id="edge34" class="edge">
<title>src/objects/nu/Tag.ts&#45;&gt;src/objects/nu/TagFactory.ts</title>
<g id="a_edge34"><a xlink:title="no&#45;circular">
<path fill="none" stroke="orange" stroke-width="2" d="M430.05,-759.8C418.1,-760.35 403.51,-760.58 389.42,-760.47"/>
<polygon fill="orange" stroke="orange" stroke-width="2" points="379.88,-758.19 373.84,-760.18 379.8,-762.39 379.88,-758.19"/>
<polyline fill="none" stroke="orange" stroke-width="2" points="380.84,-760.31 383.84,-760.37"/>
<ellipse fill="none" stroke="orange" stroke-width="2" cx="387.24" cy="-760.43" rx="2.4" ry="2.4"/>
</a>
</g>
<text text-anchor="middle" x="378.95" y="-763.19" font-family="Helvetica,sans-Serif" font-size="9.00" fill="orange">no&#45;circular</text>
</g>
<!-- src/objects/Inator.ts&#45;&gt;src/objects/nu/TagFactory.ts -->
<g id="edge4" class="edge">
<title>src/objects/Inator.ts&#45;&gt;src/objects/nu/TagFactory.ts</title>
<g id="a_edge4"><a xlink:title="no&#45;circular">
<path fill="none" stroke="orange" stroke-width="2" d="M307.75,-841.7C297.15,-838.67 285.39,-834.03 276.25,-827 273.71,-825.05 273.18,-824.07 272.25,-821 269.42,-811.64 269.42,-786.36 272.25,-777 273.96,-771.35 277.51,-767.13 282.09,-763.98"/>
<polygon fill="orange" stroke="orange" stroke-width="2" points="291.63,-762.46 296.44,-758.29 290.08,-758.55 291.63,-762.46"/>
<polyline fill="none" stroke="orange" stroke-width="2" points="289.93,-760.87 287.14,-761.98"/>
<ellipse fill="none" stroke="orange" stroke-width="2" cx="283.98" cy="-763.23" rx="2.4" ry="2.4"/>
</a>
</g>
<text text-anchor="middle" x="248.38" y="-802.51" font-family="Helvetica,sans-Serif" font-size="9.00" fill="orange">no&#45;circular</text>
</g>
<!-- src/objects/Inator.ts&#45;&gt;src/objects/nu/Tag.ts -->
<g id="edge5" class="edge">
<title>src/objects/Inator.ts&#45;&gt;src/objects/nu/Tag.ts</title>
<g id="a_edge5"><a xlink:title="no&#45;circular">
<path fill="none" stroke="orange" stroke-width="2" d="M362.3,-838.72C370.18,-835.64 378.61,-831.73 385.75,-827 405.12,-814.17 423.52,-795.38 436.67,-780.35"/>
<polygon fill="orange" stroke="orange" stroke-width="2" points="444.51,-774.26 446.75,-768.31 441.29,-771.56 444.51,-774.26"/>
<polyline fill="none" stroke="orange" stroke-width="2" points="442.26,-773.68 440.34,-775.98"/>
<ellipse fill="none" stroke="orange" stroke-width="2" cx="438.15" cy="-778.59" rx="2.4" ry="2.4"/>
</a>
</g>
<text text-anchor="middle" x="388.51" y="-799" font-family="Helvetica,sans-Serif" font-size="9.00" fill="orange">no&#45;circular</text>
</g>
<!-- src/objects/Log.ts -->
<g id="node7" class="node">
<title>src/objects/Log.ts</title>
<g id="a_node7"><a xlink:href="src/objects/Log.ts" xlink:title="Log.ts">
<path fill="#ddfeff" stroke="black" d="M233.83,-551.62C233.83,-551.62 192.67,-551.62 192.67,-551.62 189.46,-551.62 186.25,-548.42 186.25,-545.21 186.25,-545.21 186.25,-538.79 186.25,-538.79 186.25,-535.58 189.46,-532.38 192.67,-532.38 192.67,-532.38 233.83,-532.38 233.83,-532.38 237.04,-532.38 240.25,-535.58 240.25,-538.79 240.25,-538.79 240.25,-545.21 240.25,-545.21 240.25,-548.42 237.04,-551.62 233.83,-551.62"/>
<text text-anchor="start" x="200.5" y="-539.08" font-family="Helvetica,sans-Serif" font-size="9.00">Log.ts</text>
</a>
</g>
</g>
<!-- src/objects/Log.ts&#45;&gt;src/objects/nu/TagFactory.ts -->
<g id="edge8" class="edge">
<title>src/objects/Log.ts&#45;&gt;src/objects/nu/TagFactory.ts</title>
<path fill="none" stroke="#000000" stroke-width="2" stroke-opacity="0.200000" d="M240.67,-542.96C250.86,-544.76 261.63,-548.71 268.25,-557 279.98,-571.69 266.11,-710.17 276.25,-726 280.37,-732.43 286.33,-737.55 292.88,-741.62"/>
<polygon fill="#000000" fill-opacity="0.200000" stroke="#000000" stroke-width="2" stroke-opacity="0.200000" points="291.84,-743.44 298.11,-744.46 293.85,-739.75 291.84,-743.44"/>
</g>
<!-- src/objects/Log.ts&#45;&gt;src/objects/tag/Legend.ts -->
<g id="edge6" class="edge">
<title>src/objects/Log.ts&#45;&gt;src/objects/tag/Legend.ts</title>
<path fill="none" stroke="#000000" stroke-width="2" stroke-opacity="0.200000" d="M240.59,-543.61C250.52,-545.54 261.13,-549.41 268.25,-557 280.06,-569.58 264.23,-582.61 276.25,-595 281.83,-600.76 289.35,-604.31 297.12,-606.46"/>
<polygon fill="#000000" fill-opacity="0.200000" stroke="#000000" stroke-width="2" stroke-opacity="0.200000" points="296.63,-608.51 302.93,-607.71 297.51,-604.4 296.63,-608.51"/>
</g>
<!-- src/objects/Log.ts&#45;&gt;src/objects/nu/Tag.ts -->
<g id="edge7" class="edge">
<title>src/objects/Log.ts&#45;&gt;src/objects/nu/Tag.ts</title>
<path fill="none" stroke="#000000" stroke-width="2" stroke-opacity="0.200000" d="M240.59,-536.26C277.2,-529.91 343.67,-524.44 385.75,-557 443.34,-601.56 454.08,-696.77 456,-737.21"/>
<polygon fill="#000000" fill-opacity="0.200000" stroke="#000000" stroke-width="2" stroke-opacity="0.200000" points="453.9,-737.09 456.21,-743.01 458.09,-736.94 453.9,-737.09"/>
</g>
<!-- src/objects/MarkdownManager.ts -->
<g id="node8" class="node">
<title>src/objects/MarkdownManager.ts</title>
<g id="a_node8"><a xlink:href="src/objects/MarkdownManager.ts" xlink:title="MarkdownManager.ts">
<path fill="#ddfeff" stroke="black" d="M258.71,-882.62C258.71,-882.62 167.79,-882.62 167.79,-882.62 164.58,-882.62 161.38,-879.42 161.38,-876.21 161.38,-876.21 161.38,-869.79 161.38,-869.79 161.38,-866.58 164.58,-863.38 167.79,-863.38 167.79,-863.38 258.71,-863.38 258.71,-863.38 261.92,-863.38 265.12,-866.58 265.12,-869.79 265.12,-869.79 265.12,-876.21 265.12,-876.21 265.12,-879.42 261.92,-882.62 258.71,-882.62"/>
<text text-anchor="start" x="169.38" y="-870.08" font-family="Helvetica,sans-Serif" font-size="9.00">MarkdownManager.ts</text>
</a>
</g>
</g>
<!-- src/objects/MarkdownManager.ts&#45;&gt;src/objects/nu/TagFactory.ts -->
<g id="edge10" class="edge">
<title>src/objects/MarkdownManager.ts&#45;&gt;src/objects/nu/TagFactory.ts</title>
<path fill="none" stroke="#000000" stroke-width="2" stroke-opacity="0.200000" d="M262.77,-863.13C264.78,-861.64 266.63,-859.94 268.25,-858 280.69,-843.1 263.68,-785.8 276.25,-771 280.17,-766.39 285.31,-763.1 290.91,-760.77"/>
<polygon fill="#000000" fill-opacity="0.200000" stroke="#000000" stroke-width="2" stroke-opacity="0.200000" points="291.43,-762.81 296.48,-758.94 290.12,-758.82 291.43,-762.81"/>
</g>
<!-- src/objects/MarkdownManager.ts&#45;&gt;src/objects/nu/Tag.ts -->
<g id="edge9" class="edge">
<title>src/objects/MarkdownManager.ts&#45;&gt;src/objects/nu/Tag.ts</title>
<path fill="none" stroke="#000000" stroke-width="2" stroke-opacity="0.200000" d="M261.83,-863.04C264.14,-861.58 266.31,-859.91 268.25,-858 277.18,-849.23 266.79,-839.2 276.25,-831 313.42,-798.79 340.85,-835.08 385.75,-815 408.06,-805.02 428.92,-785.9 442.11,-772.13"/>
<polygon fill="#000000" fill-opacity="0.200000" stroke="#000000" stroke-width="2" stroke-opacity="0.200000" points="443.32,-773.9 445.87,-768.08 440.25,-771.04 443.32,-773.9"/>
</g>
<!-- src/objects/Persona.ts -->
<g id="node9" class="node">
<title>src/objects/Persona.ts</title>
<g id="a_node9"><a xlink:href="src/objects/Persona.ts" xlink:title="Persona.ts">
<path fill="#ddfeff" stroke="black" d="M237.33,-851.62C237.33,-851.62 189.17,-851.62 189.17,-851.62 185.96,-851.62 182.75,-848.42 182.75,-845.21 182.75,-845.21 182.75,-838.79 182.75,-838.79 182.75,-835.58 185.96,-832.38 189.17,-832.38 189.17,-832.38 237.33,-832.38 237.33,-832.38 240.54,-832.38 243.75,-835.58 243.75,-838.79 243.75,-838.79 243.75,-845.21 243.75,-845.21 243.75,-848.42 240.54,-851.62 237.33,-851.62"/>
<text text-anchor="start" x="190.75" y="-839.08" font-family="Helvetica,sans-Serif" font-size="9.00">Persona.ts</text>
</a>
</g>
</g>
<!-- src/objects/Persona.ts&#45;&gt;src/objects/nu/TagFactory.ts -->
<g id="edge12" class="edge">
<title>src/objects/Persona.ts&#45;&gt;src/objects/nu/TagFactory.ts</title>
<path fill="none" stroke="#000000" stroke-width="2" stroke-opacity="0.200000" d="M231.43,-831.93C243.38,-824.1 258.8,-812.19 268.25,-798 275.19,-787.58 267.25,-779.7 276.25,-771 280.45,-766.94 285.61,-763.94 291.1,-761.73"/>
<polygon fill="#000000" fill-opacity="0.200000" stroke="#000000" stroke-width="2" stroke-opacity="0.200000" points="291.38,-763.84 296.42,-759.97 290.06,-759.86 291.38,-763.84"/>
</g>
<!-- src/objects/Persona.ts&#45;&gt;src/objects/tag/Legend.ts -->
<g id="edge13" class="edge">
<title>src/objects/Persona.ts&#45;&gt;src/objects/tag/Legend.ts</title>
<path fill="none" stroke="#000000" stroke-width="2" stroke-opacity="0.200000" d="M233.58,-831.91C245.86,-824.36 260.8,-812.8 268.25,-798 277,-780.61 263.87,-638.02 276.25,-623 281.55,-616.57 289.26,-612.8 297.32,-610.66"/>
<polygon fill="#000000" fill-opacity="0.200000" stroke="#000000" stroke-width="2" stroke-opacity="0.200000" points="297.67,-612.73 303.15,-609.51 296.85,-608.61 297.67,-612.73"/>
</g>
<!-- src/objects/Persona.ts&#45;&gt;src/objects/nu/Tag.ts -->
<g id="edge11" class="edge">
<title>src/objects/Persona.ts&#45;&gt;src/objects/nu/Tag.ts</title>
<path fill="none" stroke="#000000" stroke-width="2" stroke-opacity="0.200000" d="M239.26,-831.92C250.43,-827.74 263.85,-823.13 276.25,-820 324,-807.93 339.84,-820.84 385.75,-803 404.98,-795.53 424.31,-782.16 437.87,-771.59"/>
<polygon fill="#000000" fill-opacity="0.200000" stroke="#000000" stroke-width="2" stroke-opacity="0.200000" points="439.04,-773.34 442.41,-767.95 436.42,-770.06 439.04,-773.34"/>
</g>
<!-- src/objects/SettingsManager.ts -->
<g id="node10" class="node">
<title>src/objects/SettingsManager.ts</title>
<g id="a_node10"><a xlink:href="src/objects/SettingsManager.ts" xlink:title="SettingsManager.ts">
<path fill="#ddfeff" stroke="black" d="M376.33,-673.62C376.33,-673.62 293.67,-673.62 293.67,-673.62 290.46,-673.62 287.25,-670.42 287.25,-667.21 287.25,-667.21 287.25,-660.79 287.25,-660.79 287.25,-657.58 290.46,-654.38 293.67,-654.38 293.67,-654.38 376.33,-654.38 376.33,-654.38 379.54,-654.38 382.75,-657.58 382.75,-660.79 382.75,-660.79 382.75,-667.21 382.75,-667.21 382.75,-670.42 379.54,-673.62 376.33,-673.62"/>
<text text-anchor="start" x="295.25" y="-661.08" font-family="Helvetica,sans-Serif" font-size="9.00">SettingsManager.ts</text>
</a>
</g>
</g>
<!-- src/objects/chat/ChatManager.ts -->
<g id="node11" class="node">
<title>src/objects/chat/ChatManager.ts</title>
<g id="a_node11"><a xlink:href="src/objects/chat/ChatManager.ts" xlink:title="ChatManager.ts">
<path fill="#ddfeff" stroke="black" d="M247.46,-918.62C247.46,-918.62 179.04,-918.62 179.04,-918.62 175.83,-918.62 172.62,-915.42 172.62,-912.21 172.62,-912.21 172.62,-905.79 172.62,-905.79 172.62,-902.58 175.83,-899.38 179.04,-899.38 179.04,-899.38 247.46,-899.38 247.46,-899.38 250.67,-899.38 253.88,-902.58 253.88,-905.79 253.88,-905.79 253.88,-912.21 253.88,-912.21 253.88,-915.42 250.67,-918.62 247.46,-918.62"/>
<text text-anchor="start" x="180.62" y="-906.08" font-family="Helvetica,sans-Serif" font-size="9.00">ChatManager.ts</text>
</a>
</g>
</g>
<!-- src/objects/chat/ChatManager.ts&#45;&gt;src/objects/nu/TagFactory.ts -->
<g id="edge15" class="edge">
<title>src/objects/chat/ChatManager.ts&#45;&gt;src/objects/nu/TagFactory.ts</title>
<path fill="none" stroke="#000000" stroke-width="2" stroke-opacity="0.200000" d="M254.23,-904.82C259.61,-902.63 264.55,-899.48 268.25,-895 285.84,-873.72 258.66,-792.29 276.25,-771 280.11,-766.33 285.21,-763.01 290.8,-760.67"/>
<polygon fill="#000000" fill-opacity="0.200000" stroke="#000000" stroke-width="2" stroke-opacity="0.200000" points="291.31,-762.71 296.36,-758.84 290,-758.72 291.31,-762.71"/>
</g>
<!-- src/objects/chat/ChatManager.ts&#45;&gt;src/objects/nu/Tag.ts -->
<g id="edge14" class="edge">
<title>src/objects/chat/ChatManager.ts&#45;&gt;src/objects/nu/Tag.ts</title>
<path fill="none" stroke="#000000" stroke-width="2" stroke-opacity="0.200000" d="M254.29,-913.06C291.56,-914.76 347.04,-911.74 385.75,-885 424.44,-858.27 444.02,-803.23 451.95,-774.45"/>
<polygon fill="#000000" fill-opacity="0.200000" stroke="#000000" stroke-width="2" stroke-opacity="0.200000" points="453.97,-775.04 453.45,-768.71 449.91,-773.99 453.97,-775.04"/>
</g>
<!-- src/objects/color/ColorNames.ts -->
<g id="node12" class="node">
<title>src/objects/color/ColorNames.ts</title>
<g id="a_node12"><a xlink:href="src/objects/color/ColorNames.ts" xlink:title="ColorNames.ts">
<path fill="#ddfeff" stroke="black" d="M124.21,-51.62C124.21,-51.62 58.04,-51.62 58.04,-51.62 54.83,-51.62 51.62,-48.42 51.62,-45.21 51.62,-45.21 51.62,-38.79 51.62,-38.79 51.62,-35.58 54.83,-32.38 58.04,-32.38 58.04,-32.38 124.21,-32.38 124.21,-32.38 127.42,-32.38 130.62,-35.58 130.62,-38.79 130.62,-38.79 130.62,-45.21 130.62,-45.21 130.62,-48.42 127.42,-51.62 124.21,-51.62"/>
<text text-anchor="start" x="59.62" y="-39.08" font-family="Helvetica,sans-Serif" font-size="9.00">ColorNames.ts</text>
</a>
</g>
</g>
<!-- src/objects/color/Colors.ts -->
<g id="node13" class="node">
<title>src/objects/color/Colors.ts</title>
<g id="a_node13"><a xlink:href="src/objects/color/Colors.ts" xlink:title="Colors.ts">
<path fill="#ddfeff" stroke="black" d="M233.83,-51.62C233.83,-51.62 192.67,-51.62 192.67,-51.62 189.46,-51.62 186.25,-48.42 186.25,-45.21 186.25,-45.21 186.25,-38.79 186.25,-38.79 186.25,-35.58 189.46,-32.38 192.67,-32.38 192.67,-32.38 233.83,-32.38 233.83,-32.38 237.04,-32.38 240.25,-35.58 240.25,-38.79 240.25,-38.79 240.25,-45.21 240.25,-45.21 240.25,-48.42 237.04,-51.62 233.83,-51.62"/>
<text text-anchor="start" x="194.5" y="-39.08" font-family="Helvetica,sans-Serif" font-size="9.00">Colors.ts</text>
</a>
</g>
</g>
<!-- src/objects/color/ColorNames.ts&#45;&gt;src/objects/color/Colors.ts -->
<g id="edge16" class="edge">
<title>src/objects/color/ColorNames.ts&#45;&gt;src/objects/color/Colors.ts</title>
<path fill="none" stroke="#000000" stroke-width="2" stroke-opacity="0.200000" d="M130.79,-42C145.68,-42 162.57,-42 177.1,-42"/>
<polygon fill="#000000" fill-opacity="0.200000" stroke="#000000" stroke-width="2" stroke-opacity="0.200000" points="176.78,-44.1 182.78,-42 176.78,-39.9 176.78,-44.1"/>
</g>
<!-- src/objects/directive/drag/draggable.ts -->
<g id="node14" class="node">
<title>src/objects/directive/drag/draggable.ts</title>
<g id="a_node14"><a xlink:href="src/objects/directive/drag/draggable.ts" xlink:title="draggable.ts">
<path fill="#ddfeff" stroke="black" d="M240.71,-1111.62C240.71,-1111.62 185.79,-1111.62 185.79,-1111.62 182.58,-1111.62 179.38,-1108.42 179.38,-1105.21 179.38,-1105.21 179.38,-1098.79 179.38,-1098.79 179.38,-1095.58 182.58,-1092.38 185.79,-1092.38 185.79,-1092.38 240.71,-1092.38 240.71,-1092.38 243.92,-1092.38 247.12,-1095.58 247.12,-1098.79 247.12,-1098.79 247.12,-1105.21 247.12,-1105.21 247.12,-1108.42 243.92,-1111.62 240.71,-1111.62"/>
<text text-anchor="start" x="187.38" y="-1099.08" font-family="Helvetica,sans-Serif" font-size="9.00">draggable.ts</text>
</a>
</g>
</g>
<!-- src/objects/directive/drag/draggable.ts&#45;&gt;src/objects/nu/Tag.ts -->
<g id="edge18" class="edge">
<title>src/objects/directive/drag/draggable.ts&#45;&gt;src/objects/nu/Tag.ts</title>
<path fill="none" stroke="#000000" stroke-width="2" stroke-opacity="0.200000" d="M247.58,-1099.35C255.25,-1097.24 262.77,-1093.74 268.25,-1088 280.17,-1075.52 265.36,-1063.39 276.25,-1050 309.77,-1008.77 350.77,-1042 385.75,-1002 444.9,-934.37 454.67,-820.1 456.17,-775.06"/>
<polygon fill="#000000" fill-opacity="0.200000" stroke="#000000" stroke-width="2" stroke-opacity="0.200000" points="458.26,-775.16 456.31,-769.11 454.07,-775.06 458.26,-775.16"/>
</g>
<!-- src/objects/drag/DragDataHandler.ts -->
<g id="node15" class="node">
<title>src/objects/drag/DragDataHandler.ts</title>
<g id="a_node15"><a xlink:href="src/objects/drag/DragDataHandler.ts" xlink:title="DragDataHandler.ts">
<path fill="#ddfeff" stroke="black" d="M377.83,-1111.62C377.83,-1111.62 292.17,-1111.62 292.17,-1111.62 288.96,-1111.62 285.75,-1108.42 285.75,-1105.21 285.75,-1105.21 285.75,-1098.79 285.75,-1098.79 285.75,-1095.58 288.96,-1092.38 292.17,-1092.38 292.17,-1092.38 377.83,-1092.38 377.83,-1092.38 381.04,-1092.38 384.25,-1095.58 384.25,-1098.79 384.25,-1098.79 384.25,-1105.21 384.25,-1105.21 384.25,-1108.42 381.04,-1111.62 377.83,-1111.62"/>
<text text-anchor="start" x="293.75" y="-1099.08" font-family="Helvetica,sans-Serif" font-size="9.00">DragDataHandler.ts</text>
</a>
</g>
</g>
<!-- src/objects/directive/drag/draggable.ts&#45;&gt;src/objects/drag/DragDataHandler.ts -->
<g id="edge17" class="edge">
<title>src/objects/directive/drag/draggable.ts&#45;&gt;src/objects/drag/DragDataHandler.ts</title>
<path fill="none" stroke="#000000" stroke-width="2" stroke-opacity="0.200000" d="M247.61,-1102C256.71,-1102 266.83,-1102 276.85,-1102"/>
<polygon fill="#000000" fill-opacity="0.200000" stroke="#000000" stroke-width="2" stroke-opacity="0.200000" points="276.58,-1104.1 282.58,-1102 276.58,-1099.9 276.58,-1104.1"/>
</g>
<!-- src/objects/drag/DragManagerInterface.ts -->
<g id="node18" class="node">
<title>src/objects/drag/DragManagerInterface.ts</title>
<g id="a_node18"><a xlink:href="src/objects/drag/DragManagerInterface.ts" xlink:title="DragManagerInterface.ts">
<path fill="#ddfeff" stroke="black" d="M509.58,-1111.62C509.58,-1111.62 405.17,-1111.62 405.17,-1111.62 401.96,-1111.62 398.75,-1108.42 398.75,-1105.21 398.75,-1105.21 398.75,-1098.79 398.75,-1098.79 398.75,-1095.58 401.96,-1092.38 405.17,-1092.38 405.17,-1092.38 509.58,-1092.38 509.58,-1092.38 512.79,-1092.38 516,-1095.58 516,-1098.79 516,-1098.79 516,-1105.21 516,-1105.21 516,-1108.42 512.79,-1111.62 509.58,-1111.62"/>
<text text-anchor="start" x="406.75" y="-1099.08" font-family="Helvetica,sans-Serif" font-size="9.00">DragManagerInterface.ts</text>
</a>
</g>
</g>
<!-- src/objects/drag/DragDataHandler.ts&#45;&gt;src/objects/drag/DragManagerInterface.ts -->
<g id="edge21" class="edge">
<title>src/objects/drag/DragDataHandler.ts&#45;&gt;src/objects/drag/DragManagerInterface.ts</title>
<path fill="none" stroke="#000000" stroke-opacity="0.200000" d="M384.61,-1102C386.76,-1102 388.92,-1102 391.09,-1102"/>
<polygon fill="none" stroke="#000000" stroke-opacity="0.200000" points="390.97,-1104.1 396.97,-1102 390.97,-1099.9 390.97,-1104.1"/>
</g>
<!-- src/objects/directive/drag/droppable.ts -->
<g id="node16" class="node">
<title>src/objects/directive/drag/droppable.ts</title>
<g id="a_node16"><a xlink:href="src/objects/directive/drag/droppable.ts" xlink:title="droppable.ts">
<path fill="#ddfeff" stroke="black" d="M240.71,-1142.62C240.71,-1142.62 185.79,-1142.62 185.79,-1142.62 182.58,-1142.62 179.38,-1139.42 179.38,-1136.21 179.38,-1136.21 179.38,-1129.79 179.38,-1129.79 179.38,-1126.58 182.58,-1123.38 185.79,-1123.38 185.79,-1123.38 240.71,-1123.38 240.71,-1123.38 243.92,-1123.38 247.12,-1126.58 247.12,-1129.79 247.12,-1129.79 247.12,-1136.21 247.12,-1136.21 247.12,-1139.42 243.92,-1142.62 240.71,-1142.62"/>
<text text-anchor="start" x="187.38" y="-1130.08" font-family="Helvetica,sans-Serif" font-size="9.00">droppable.ts</text>
</a>
</g>
</g>
<!-- src/objects/directive/drag/droppable.ts&#45;&gt;src/objects/drag/DragDataHandler.ts -->
<g id="edge19" class="edge">
<title>src/objects/directive/drag/droppable.ts&#45;&gt;src/objects/drag/DragDataHandler.ts</title>
<path fill="none" stroke="#000000" stroke-width="2" stroke-opacity="0.200000" d="M247.61,-1124.36C259.76,-1121.22 273.73,-1117.6 286.85,-1114.21"/>
<polygon fill="#000000" fill-opacity="0.200000" stroke="#000000" stroke-width="2" stroke-opacity="0.200000" points="287.11,-1116.31 292.39,-1112.77 286.05,-1112.24 287.11,-1116.31"/>
</g>
<!-- src/objects/directive/tags.ts -->
<g id="node17" class="node">
<title>src/objects/directive/tags.ts</title>
<g id="a_node17"><a xlink:href="src/objects/directive/tags.ts" xlink:title="tags.ts">
<path fill="#ddfeff" stroke="black" d="M233.83,-1075.62C233.83,-1075.62 192.67,-1075.62 192.67,-1075.62 189.46,-1075.62 186.25,-1072.42 186.25,-1069.21 186.25,-1069.21 186.25,-1062.79 186.25,-1062.79 186.25,-1059.58 189.46,-1056.38 192.67,-1056.38 192.67,-1056.38 233.83,-1056.38 233.83,-1056.38 237.04,-1056.38 240.25,-1059.58 240.25,-1062.79 240.25,-1062.79 240.25,-1069.21 240.25,-1069.21 240.25,-1072.42 237.04,-1075.62 233.83,-1075.62"/>
<text text-anchor="start" x="199.38" y="-1063.08" font-family="Helvetica,sans-Serif" font-size="9.00">tags.ts</text>
</a>
</g>
</g>
<!-- src/objects/directive/tags.ts&#45;&gt;src/objects/nu/Tag.ts -->
<g id="edge20" class="edge">
<title>src/objects/directive/tags.ts&#45;&gt;src/objects/nu/Tag.ts</title>
<path fill="none" stroke="#000000" stroke-width="2" stroke-opacity="0.200000" d="M240.68,-1058.25C250.05,-1054.64 260.25,-1049.64 268.25,-1043 273.18,-1038.91 271.6,-1035.41 276.25,-1031 317.3,-992.04 350.17,-1010.02 385.75,-966 433.45,-906.98 449.57,-814.21 454.46,-774.76"/>
<polygon fill="#000000" fill-opacity="0.200000" stroke="#000000" stroke-width="2" stroke-opacity="0.200000" points="456.53,-775.14 455.13,-768.94 452.36,-774.66 456.53,-775.14"/>
</g>
<!-- src/objects/drag/DragEventPayload.ts -->
<g id="node19" class="node">
<title>src/objects/drag/DragEventPayload.ts</title>
<g id="a_node19"><a xlink:href="src/objects/drag/DragEventPayload.ts" xlink:title="DragEventPayload.ts">
<path fill="#ddfeff" stroke="black" d="M379.33,-1080.62C379.33,-1080.62 290.67,-1080.62 290.67,-1080.62 287.46,-1080.62 284.25,-1077.42 284.25,-1074.21 284.25,-1074.21 284.25,-1067.79 284.25,-1067.79 284.25,-1064.58 287.46,-1061.38 290.67,-1061.38 290.67,-1061.38 379.33,-1061.38 379.33,-1061.38 382.54,-1061.38 385.75,-1064.58 385.75,-1067.79 385.75,-1067.79 385.75,-1074.21 385.75,-1074.21 385.75,-1077.42 382.54,-1080.62 379.33,-1080.62"/>
<text text-anchor="start" x="292.25" y="-1068.08" font-family="Helvetica,sans-Serif" font-size="9.00">DragEventPayload.ts</text>
</a>
</g>
</g>
<!-- src/objects/drag/DragEventPayload.ts&#45;&gt;src/objects/nu/Tag.ts -->
<g id="edge22" class="edge">
<title>src/objects/drag/DragEventPayload.ts&#45;&gt;src/objects/nu/Tag.ts</title>
<path fill="none" stroke="#000000" stroke-width="2" stroke-opacity="0.200000" d="M359.15,-1060.89C368.69,-1055.64 379.05,-1048.35 385.75,-1039 446.33,-954.48 455.16,-823.46 456.29,-774.92"/>
<polygon fill="#000000" fill-opacity="0.200000" stroke="#000000" stroke-width="2" stroke-opacity="0.200000" points="458.39,-775.17 456.38,-769.14 454.19,-775.1 458.39,-775.17"/>
</g>
<!-- src/objects/game/card/Card.ts -->
<g id="node20" class="node">
<title>src/objects/game/card/Card.ts</title>
<g id="a_node20"><a xlink:href="src/objects/game/card/Card.ts" xlink:title="no&#45;orphans">
<path fill="#ccffcc" stroke="orange" d="M111.71,-124.62C111.71,-124.62 70.54,-124.62 70.54,-124.62 67.33,-124.62 64.12,-121.42 64.12,-118.21 64.12,-118.21 64.12,-111.79 64.12,-111.79 64.12,-108.58 67.33,-105.38 70.54,-105.38 70.54,-105.38 111.71,-105.38 111.71,-105.38 114.92,-105.38 118.12,-108.58 118.12,-111.79 118.12,-111.79 118.12,-118.21 118.12,-118.21 118.12,-121.42 114.92,-124.62 111.71,-124.62"/>
<text text-anchor="start" x="76.12" y="-112.08" font-family="Helvetica,sans-Serif" font-size="9.00" fill="orange">Card.ts</text>
</a>
</g>
</g>
<!-- src/objects/game/card/CardLibrary.ts -->
<g id="node21" class="node">
<title>src/objects/game/card/CardLibrary.ts</title>
<g id="a_node21"><a xlink:href="src/objects/game/card/CardLibrary.ts" xlink:title="CardLibrary.ts">
<path fill="#ddfeff" stroke="black" d="M121.58,-155.62C121.58,-155.62 60.67,-155.62 60.67,-155.62 57.46,-155.62 54.25,-152.42 54.25,-149.21 54.25,-149.21 54.25,-142.79 54.25,-142.79 54.25,-139.58 57.46,-136.38 60.67,-136.38 60.67,-136.38 121.58,-136.38 121.58,-136.38 124.79,-136.38 128,-139.58 128,-142.79 128,-142.79 128,-149.21 128,-149.21 128,-152.42 124.79,-155.62 121.58,-155.62"/>
<text text-anchor="start" x="62.25" y="-143.07" font-family="Helvetica,sans-Serif" font-size="9.00">CardLibrary.ts</text>
</a>
</g>
</g>
<!-- src/objects/game/card/NuCard.ts -->
<g id="node22" class="node">
<title>src/objects/game/card/NuCard.ts</title>
<g id="a_node22"><a xlink:href="src/objects/game/card/NuCard.ts" xlink:title="NuCard.ts">
<path fill="#ddfeff" stroke="black" d="M235.83,-155.62C235.83,-155.62 190.67,-155.62 190.67,-155.62 187.46,-155.62 184.25,-152.42 184.25,-149.21 184.25,-149.21 184.25,-142.79 184.25,-142.79 184.25,-139.58 187.46,-136.38 190.67,-136.38 190.67,-136.38 235.83,-136.38 235.83,-136.38 239.04,-136.38 242.25,-139.58 242.25,-142.79 242.25,-142.79 242.25,-149.21 242.25,-149.21 242.25,-152.42 239.04,-155.62 235.83,-155.62"/>
<text text-anchor="start" x="192.25" y="-143.07" font-family="Helvetica,sans-Serif" font-size="9.00">NuCard.ts</text>
</a>
</g>
</g>
<!-- src/objects/game/card/CardLibrary.ts&#45;&gt;src/objects/game/card/NuCard.ts -->
<g id="edge23" class="edge">
<title>src/objects/game/card/CardLibrary.ts&#45;&gt;src/objects/game/card/NuCard.ts</title>
<path fill="none" stroke="#000000" stroke-width="2" stroke-opacity="0.200000" d="M128.49,-146C143.25,-146 160.27,-146 175.1,-146"/>
<polygon fill="#000000" fill-opacity="0.200000" stroke="#000000" stroke-width="2" stroke-opacity="0.200000" points="174.99,-148.1 180.99,-146 174.99,-143.9 174.99,-148.1"/>
</g>
<!-- src/objects/game/card/NuCard.ts&#45;&gt;src/objects/nu/Tag.ts -->
<g id="edge24" class="edge">
<title>src/objects/game/card/NuCard.ts&#45;&gt;src/objects/nu/Tag.ts</title>
<path fill="none" stroke="#000000" stroke-width="2" stroke-opacity="0.200000" d="M226.74,-155.88C259.07,-182.23 345.75,-257.88 385.75,-342 452.64,-482.65 457.07,-676.82 456.71,-737.27"/>
<polygon fill="#000000" fill-opacity="0.200000" stroke="#000000" stroke-width="2" stroke-opacity="0.200000" points="454.61,-737.04 456.65,-743.07 458.81,-737.09 454.61,-737.04"/>
</g>
<!-- src/objects/game/character/Character.ts -->
<g id="node23" class="node">
<title>src/objects/game/character/Character.ts</title>
<g id="a_node23"><a xlink:href="src/objects/game/character/Character.ts" xlink:title="Character.ts">
<path fill="#ddfeff" stroke="black" d="M117.83,-218.62C117.83,-218.62 64.42,-218.62 64.42,-218.62 61.21,-218.62 58,-215.42 58,-212.21 58,-212.21 58,-205.79 58,-205.79 58,-202.58 61.21,-199.38 64.42,-199.38 64.42,-199.38 117.83,-199.38 117.83,-199.38 121.04,-199.38 124.25,-202.58 124.25,-205.79 124.25,-205.79 124.25,-212.21 124.25,-212.21 124.25,-215.42 121.04,-218.62 117.83,-218.62"/>
<text text-anchor="start" x="66" y="-206.07" font-family="Helvetica,sans-Serif" font-size="9.00">Character.ts</text>
</a>
</g>
</g>
<!-- src/objects/game/character/Character.ts&#45;&gt;src/objects/tag/Legend.ts -->
<g id="edge26" class="edge">
<title>src/objects/game/character/Character.ts&#45;&gt;src/objects/tag/Legend.ts</title>
<path fill="none" stroke="#000000" stroke-width="2" stroke-opacity="0.200000" d="M124.51,-213.87C133.28,-216.1 142.48,-219.33 150.25,-224 216.85,-264.03 231.26,-284.67 268.25,-353 312.32,-434.41 327.76,-546.49 332.33,-590.35"/>
<polygon fill="#000000" fill-opacity="0.200000" stroke="#000000" stroke-width="2" stroke-opacity="0.200000" points="330.22,-590.3 332.89,-596.07 334.4,-589.89 330.22,-590.3"/>
</g>
<!-- src/objects/game/character/Character.ts&#45;&gt;src/objects/nu/Tag.ts -->
<g id="edge25" class="edge">
<title>src/objects/game/character/Character.ts&#45;&gt;src/objects/nu/Tag.ts</title>
<path fill="none" stroke="#000000" stroke-width="2" stroke-opacity="0.200000" d="M124.56,-203.07C134.3,-199.68 144.03,-194.35 150.25,-186 162.51,-169.54 143.12,-107.87 158.25,-94 176.27,-77.48 245.37,-85.39 268.25,-94 333.25,-118.46 353.17,-135.67 385.75,-197 437.29,-294.01 452.76,-651.1 455.77,-737.22"/>
<polygon fill="#000000" fill-opacity="0.200000" stroke="#000000" stroke-width="2" stroke-opacity="0.200000" points="453.67,-737.19 455.97,-743.12 457.87,-737.05 453.67,-737.19"/>
</g>
<!-- src/objects/game/character/JennyEverywhere.ts -->
<g id="node24" class="node">
<title>src/objects/game/character/JennyEverywhere.ts</title>
<g id="a_node24"><a xlink:href="src/objects/game/character/JennyEverywhere.ts" xlink:title="JennyEverywhere.ts">
<path fill="#ddfeff" stroke="black" d="M133.21,-249.62C133.21,-249.62 49.04,-249.62 49.04,-249.62 45.83,-249.62 42.62,-246.42 42.62,-243.21 42.62,-243.21 42.62,-236.79 42.62,-236.79 42.62,-233.58 45.83,-230.38 49.04,-230.38 49.04,-230.38 133.21,-230.38 133.21,-230.38 136.42,-230.38 139.62,-233.58 139.62,-236.79 139.62,-236.79 139.62,-243.21 139.62,-243.21 139.62,-246.42 136.42,-249.62 133.21,-249.62"/>
<text text-anchor="start" x="50.62" y="-237.07" font-family="Helvetica,sans-Serif" font-size="9.00">JennyEverywhere.ts</text>
</a>
</g>
</g>
<!-- src/objects/game/character/JennyEverywhere.ts&#45;&gt;src/objects/Persona.ts -->
<g id="edge27" class="edge">
<title>src/objects/game/character/JennyEverywhere.ts&#45;&gt;src/objects/Persona.ts</title>
<path fill="none" stroke="#000000" stroke-width="2" stroke-opacity="0.200000" d="M115.07,-250.08C127.9,-257.04 142.77,-267.65 150.25,-282 163.5,-307.43 145.75,-772.2 158.25,-798 164.06,-810 174.89,-819.82 185.32,-827.12"/>
<polygon fill="#000000" fill-opacity="0.200000" stroke="#000000" stroke-width="2" stroke-opacity="0.200000" points="184.07,-828.81 190.24,-830.33 186.36,-825.29 184.07,-828.81"/>
</g>
<!-- src/objects/game/dice/Dice.ts -->
<g id="node25" class="node">
<title>src/objects/game/dice/Dice.ts</title>
<g id="a_node25"><a xlink:href="src/objects/game/dice/Dice.ts" xlink:title="no&#45;orphans">
<path fill="#ccffcc" stroke="orange" d="M111.71,-312.62C111.71,-312.62 70.54,-312.62 70.54,-312.62 67.33,-312.62 64.12,-309.42 64.12,-306.21 64.12,-306.21 64.12,-299.79 64.12,-299.79 64.12,-296.58 67.33,-293.38 70.54,-293.38 70.54,-293.38 111.71,-293.38 111.71,-293.38 114.92,-293.38 118.12,-296.58 118.12,-299.79 118.12,-299.79 118.12,-306.21 118.12,-306.21 118.12,-309.42 114.92,-312.62 111.71,-312.62"/>
<text text-anchor="start" x="76.88" y="-300.07" font-family="Helvetica,sans-Serif" font-size="9.00" fill="orange">Dice.ts</text>
</a>
</g>
</g>
<!-- src/objects/game/sta/Momentum.ts -->
<g id="node26" class="node">
<title>src/objects/game/sta/Momentum.ts</title>
<g id="a_node26"><a xlink:href="src/objects/game/sta/Momentum.ts" xlink:title="Momentum.ts">
<path fill="#ddfeff" stroke="black" d="M120.83,-375.62C120.83,-375.62 61.42,-375.62 61.42,-375.62 58.21,-375.62 55,-372.42 55,-369.21 55,-369.21 55,-362.79 55,-362.79 55,-359.58 58.21,-356.38 61.42,-356.38 61.42,-356.38 120.83,-356.38 120.83,-356.38 124.04,-356.38 127.25,-359.58 127.25,-362.79 127.25,-362.79 127.25,-369.21 127.25,-369.21 127.25,-372.42 124.04,-375.62 120.83,-375.62"/>
<text text-anchor="start" x="63" y="-363.07" font-family="Helvetica,sans-Serif" font-size="9.00">Momentum.ts</text>
</a>
</g>
</g>
<!-- src/objects/game/sta/Momentum.ts&#45;&gt;src/objects/Counter.ts -->
<g id="edge28" class="edge">
<title>src/objects/game/sta/Momentum.ts&#45;&gt;src/objects/Counter.ts</title>
<path fill="none" stroke="#000000" stroke-width="2" stroke-opacity="0.200000" d="M109.58,-375.99C121.94,-383.65 138.37,-395.08 150.25,-408 174.34,-434.2 193.84,-471.19 204.18,-492.98"/>
<polygon fill="#000000" fill-opacity="0.200000" stroke="#000000" stroke-width="2" stroke-opacity="0.200000" points="202.22,-493.74 206.65,-498.3 206.03,-491.97 202.22,-493.74"/>
</g>
<!-- src/objects/game/stick/stick_figure_game.ts -->
<g id="node27" class="node">
<title>src/objects/game/stick/stick_figure_game.ts</title>
<g id="a_node27"><a xlink:href="src/objects/game/stick/stick_figure_game.ts" xlink:title="no&#45;orphans">
<path fill="#ccffcc" stroke="orange" d="M135.83,-438.62C135.83,-438.62 46.42,-438.62 46.42,-438.62 43.21,-438.62 40,-435.42 40,-432.21 40,-432.21 40,-425.79 40,-425.79 40,-422.58 43.21,-419.38 46.42,-419.38 46.42,-419.38 135.83,-419.38 135.83,-419.38 139.04,-419.38 142.25,-422.58 142.25,-425.79 142.25,-425.79 142.25,-432.21 142.25,-432.21 142.25,-435.42 139.04,-438.62 135.83,-438.62"/>
<text text-anchor="start" x="48" y="-426.07" font-family="Helvetica,sans-Serif" font-size="9.00" fill="orange">stick_figure_game.ts</text>
</a>
</g>
</g>
<!-- src/objects/nu/Label.ts -->
<g id="node28" class="node">
<title>src/objects/nu/Label.ts</title>
<g id="a_node28"><a xlink:href="src/objects/nu/Label.ts" xlink:title="Label.ts">
<path fill="#ddfeff" stroke="black" d="M355.58,-719.62C355.58,-719.62 314.42,-719.62 314.42,-719.62 311.21,-719.62 308,-716.42 308,-713.21 308,-713.21 308,-706.79 308,-706.79 308,-703.58 311.21,-700.38 314.42,-700.38 314.42,-700.38 355.58,-700.38 355.58,-700.38 358.79,-700.38 362,-703.58 362,-706.79 362,-706.79 362,-713.21 362,-713.21 362,-716.42 358.79,-719.62 355.58,-719.62"/>
<text text-anchor="start" x="318.5" y="-707.08" font-family="Helvetica,sans-Serif" font-size="9.00">Label.ts</text>
</a>
</g>
</g>
<!-- src/objects/nu/Label.ts&#45;&gt;src/objects/nu/Tag.ts -->
<g id="edge29" class="edge">
<title>src/objects/nu/Label.ts&#45;&gt;src/objects/nu/Tag.ts</title>
<path fill="none" stroke="#000000" stroke-width="2" stroke-opacity="0.200000" d="M362.42,-720.09C379.82,-726.75 402.8,-735.53 421.67,-742.74"/>
<polygon fill="#000000" fill-opacity="0.200000" stroke="#000000" stroke-width="2" stroke-opacity="0.200000" points="420.84,-744.67 427.19,-744.85 422.34,-740.74 420.84,-744.67"/>
</g>
<!-- src/objects/nu/NuTray.ts -->
<g id="node29" class="node">
<title>src/objects/nu/NuTray.ts</title>
<g id="a_node29"><a xlink:href="src/objects/nu/NuTray.ts" xlink:title="NuTray.ts">
<path fill="#ddfeff" stroke="black" d="M234.33,-726.62C234.33,-726.62 192.17,-726.62 192.17,-726.62 188.96,-726.62 185.75,-723.42 185.75,-720.21 185.75,-720.21 185.75,-713.79 185.75,-713.79 185.75,-710.58 188.96,-707.38 192.17,-707.38 192.17,-707.38 234.33,-707.38 234.33,-707.38 237.54,-707.38 240.75,-710.58 240.75,-713.79 240.75,-713.79 240.75,-720.21 240.75,-720.21 240.75,-723.42 237.54,-726.62 234.33,-726.62"/>
<text text-anchor="start" x="193.75" y="-714.08" font-family="Helvetica,sans-Serif" font-size="9.00">NuTray.ts</text>
</a>
</g>
</g>
<!-- src/objects/nu/NuTray.ts&#45;&gt;src/objects/nu/TagFactory.ts -->
<g id="edge31" class="edge">
<title>src/objects/nu/NuTray.ts&#45;&gt;src/objects/nu/TagFactory.ts</title>
<path fill="none" stroke="#000000" stroke-width="2" stroke-opacity="0.200000" d="M241.12,-725.75C256.89,-730.89 277.09,-737.47 294.62,-743.18"/>
<polygon fill="#000000" fill-opacity="0.200000" stroke="#000000" stroke-width="2" stroke-opacity="0.200000" points="293.75,-745.1 300.11,-744.96 295.05,-741.11 293.75,-745.1"/>
</g>
<!-- src/objects/nu/NuTray.ts&#45;&gt;src/objects/tag/Legend.ts -->
<g id="edge33" class="edge">
<title>src/objects/nu/NuTray.ts&#45;&gt;src/objects/tag/Legend.ts</title>
<path fill="none" stroke="#000000" stroke-width="2" stroke-opacity="0.200000" d="M240.98,-716.29C250.97,-714.61 261.51,-710.87 268.25,-703 291.5,-675.86 252.79,-649.95 276.25,-623 281.67,-616.77 289.35,-613.07 297.34,-610.92"/>
<polygon fill="#000000" fill-opacity="0.200000" stroke="#000000" stroke-width="2" stroke-opacity="0.200000" points="297.62,-613.01 303.08,-609.76 296.78,-608.89 297.62,-613.01"/>
</g>
<!-- src/objects/nu/NuTray.ts&#45;&gt;src/objects/nu/Tag.ts -->
<g id="edge30" class="edge">
<title>src/objects/nu/NuTray.ts&#45;&gt;src/objects/nu/Tag.ts</title>
<path fill="none" stroke="#000000" stroke-width="2" stroke-opacity="0.200000" d="M241.09,-721C252,-722.6 264.72,-724.43 276.25,-726 324.86,-732.64 337.44,-731.46 385.75,-740 397.37,-742.06 409.97,-744.76 421.27,-747.35"/>
<polygon fill="#000000" fill-opacity="0.200000" stroke="#000000" stroke-width="2" stroke-opacity="0.200000" points="420.73,-749.38 427.05,-748.71 421.69,-745.29 420.73,-749.38"/>
</g>
<!-- src/objects/nu/NuTray.ts&#45;&gt;src/objects/SettingsManager.ts -->
<g id="edge32" class="edge">
<title>src/objects/nu/NuTray.ts&#45;&gt;src/objects/SettingsManager.ts</title>
<path fill="none" stroke="#000000" stroke-width="2" stroke-opacity="0.200000" d="M241.12,-714.35C250.43,-712.37 260.48,-708.94 268.25,-703 273.94,-698.65 270.91,-693.78 276.25,-689 281.23,-684.54 287.13,-680.79 293.22,-677.65"/>
<polygon fill="#000000" fill-opacity="0.200000" stroke="#000000" stroke-width="2" stroke-opacity="0.200000" points="293.7,-679.75 298.24,-675.3 291.92,-675.94 293.7,-679.75"/>
</g>
<!-- src/objects/nu/TagInterface.ts -->
<g id="node30" class="node">
<title>src/objects/nu/TagInterface.ts</title>
<g id="a_node30"><a xlink:href="src/objects/nu/TagInterface.ts" xlink:title="TagInterface.ts">
<path fill="#ddfeff" stroke="black" d="M366.96,-796.62C366.96,-796.62 303.04,-796.62 303.04,-796.62 299.83,-796.62 296.62,-793.42 296.62,-790.21 296.62,-790.21 296.62,-783.79 296.62,-783.79 296.62,-780.58 299.83,-777.38 303.04,-777.38 303.04,-777.38 366.96,-777.38 366.96,-777.38 370.17,-777.38 373.38,-780.58 373.38,-783.79 373.38,-783.79 373.38,-790.21 373.38,-790.21 373.38,-793.42 370.17,-796.62 366.96,-796.62"/>
<text text-anchor="start" x="304.62" y="-784.08" font-family="Helvetica,sans-Serif" font-size="9.00">TagInterface.ts</text>
</a>
</g>
</g>
<!-- src/objects/nu/v1/ValTag.ts -->
<g id="node31" class="node">
<title>src/objects/nu/v1/ValTag.ts</title>
<g id="a_node31"><a xlink:href="src/objects/nu/v1/ValTag.ts" xlink:title="ValTag.ts">
<path fill="#ddfeff" stroke="black" d="M233.96,-767.62C233.96,-767.62 192.54,-767.62 192.54,-767.62 189.33,-767.62 186.12,-764.42 186.12,-761.21 186.12,-761.21 186.12,-754.79 186.12,-754.79 186.12,-751.58 189.33,-748.38 192.54,-748.38 192.54,-748.38 233.96,-748.38 233.96,-748.38 237.17,-748.38 240.38,-751.58 240.38,-754.79 240.38,-754.79 240.38,-761.21 240.38,-761.21 240.38,-764.42 237.17,-767.62 233.96,-767.62"/>
<text text-anchor="start" x="194.12" y="-755.08" font-family="Helvetica,sans-Serif" font-size="9.00">ValTag.ts</text>
</a>
</g>
</g>
<!-- src/objects/nu/v1/ValTag.ts&#45;&gt;src/objects/nu/TagFactory.ts -->
<g id="edge38" class="edge">
<title>src/objects/nu/v1/ValTag.ts&#45;&gt;src/objects/nu/TagFactory.ts</title>
<path fill="none" stroke="#000000" stroke-width="2" stroke-opacity="0.200000" d="M240.83,-757.56C255.36,-757.31 273.73,-757.01 290.32,-756.73"/>
<polygon fill="#000000" fill-opacity="0.200000" stroke="#000000" stroke-width="2" stroke-opacity="0.200000" points="290.32,-758.83 296.28,-756.63 290.25,-754.63 290.32,-758.83"/>
</g>
<!-- src/objects/nu/v1/ValTag.ts&#45;&gt;src/objects/nu/TagInterface.ts -->
<g id="edge37" class="edge">
<title>src/objects/nu/v1/ValTag.ts&#45;&gt;src/objects/nu/TagInterface.ts</title>
<path fill="none" stroke="#000000" stroke-opacity="0.200000" d="M240.83,-764.44C255.06,-767.88 272.96,-772.22 289.27,-776.17"/>
<polygon fill="none" stroke="#000000" stroke-opacity="0.200000" points="288.34,-778.1 294.67,-777.48 289.33,-774.02 288.34,-778.1"/>
</g>
<!-- src/objects/storage/MemoryManager.ts -->
<g id="node32" class="node">
<title>src/objects/storage/MemoryManager.ts</title>
<g id="a_node32"><a xlink:href="src/objects/storage/MemoryManager.ts" xlink:title="MemoryManager.ts">
<path fill="#ddfeff" stroke="black" d="M253.83,-1012.62C253.83,-1012.62 172.67,-1012.62 172.67,-1012.62 169.46,-1012.62 166.25,-1009.42 166.25,-1006.21 166.25,-1006.21 166.25,-999.79 166.25,-999.79 166.25,-996.58 169.46,-993.38 172.67,-993.38 172.67,-993.38 253.83,-993.38 253.83,-993.38 257.04,-993.38 260.25,-996.58 260.25,-999.79 260.25,-999.79 260.25,-1006.21 260.25,-1006.21 260.25,-1009.42 257.04,-1012.62 253.83,-1012.62"/>
<text text-anchor="start" x="174.25" y="-1000.08" font-family="Helvetica,sans-Serif" font-size="9.00">MemoryManager.ts</text>
</a>
</g>
</g>
<!-- src/objects/storage/MemoryManager.ts&#45;&gt;src/objects/nu/Tag.ts -->
<g id="edge39" class="edge">
<title>src/objects/storage/MemoryManager.ts&#45;&gt;src/objects/nu/Tag.ts</title>
<path fill="none" stroke="#000000" stroke-width="2" stroke-opacity="0.200000" d="M260.69,-995.36C299.08,-986.73 352.51,-969.05 385.75,-934 429.87,-887.47 447.6,-810.02 453.66,-774.65"/>
<polygon fill="#000000" fill-opacity="0.200000" stroke="#000000" stroke-width="2" stroke-opacity="0.200000" points="455.71,-775.09 454.59,-768.84 451.57,-774.43 455.71,-775.09"/>
</g>
<!-- src/objects/storage/TagDb.ts -->
<g id="node33" class="node">
<title>src/objects/storage/TagDb.ts</title>
<g id="a_node33"><a xlink:href="src/objects/storage/TagDb.ts" xlink:title="TagDb.ts">
<path fill="#ddfeff" stroke="black" d="M233.83,-981.62C233.83,-981.62 192.67,-981.62 192.67,-981.62 189.46,-981.62 186.25,-978.42 186.25,-975.21 186.25,-975.21 186.25,-968.79 186.25,-968.79 186.25,-965.58 189.46,-962.38 192.67,-962.38 192.67,-962.38 233.83,-962.38 233.83,-962.38 237.04,-962.38 240.25,-965.58 240.25,-968.79 240.25,-968.79 240.25,-975.21 240.25,-975.21 240.25,-978.42 237.04,-981.62 233.83,-981.62"/>
<text text-anchor="start" x="194.5" y="-969.08" font-family="Helvetica,sans-Serif" font-size="9.00">TagDb.ts</text>
</a>
</g>
</g>
<!-- src/objects/storage/TagDb.ts&#45;&gt;src/objects/nu/TagFactory.ts -->
<g id="edge41" class="edge">
<title>src/objects/storage/TagDb.ts&#45;&gt;src/objects/nu/TagFactory.ts</title>
<path fill="none" stroke="#000000" stroke-width="2" stroke-opacity="0.200000" d="M240.67,-967.08C250.99,-963.75 261.86,-958.21 268.25,-949 279.54,-932.73 263.79,-786.38 276.25,-771 280.06,-766.29 285.14,-762.96 290.72,-760.61"/>
<polygon fill="#000000" fill-opacity="0.200000" stroke="#000000" stroke-width="2" stroke-opacity="0.200000" points="291.23,-762.65 296.27,-758.77 289.91,-758.66 291.23,-762.65"/>
</g>
<!-- src/objects/storage/TagDb.ts&#45;&gt;src/objects/nu/Tag.ts -->
<g id="edge40" class="edge">
<title>src/objects/storage/TagDb.ts&#45;&gt;src/objects/nu/Tag.ts</title>
<path fill="none" stroke="#000000" stroke-width="2" stroke-opacity="0.200000" d="M240.7,-967.56C277.43,-960.16 344.06,-942.05 385.75,-903 424.33,-866.87 444.2,-805.26 452.13,-774.55"/>
<polygon fill="#000000" fill-opacity="0.200000" stroke="#000000" stroke-width="2" stroke-opacity="0.200000" points="454.1,-775.34 453.49,-769.01 450.02,-774.33 454.1,-775.34"/>
</g>
<!-- src/objects/tag/TagMap.ts -->
<g id="node34" class="node">
<title>src/objects/tag/TagMap.ts</title>
<g id="a_node34"><a xlink:href="src/objects/tag/TagMap.ts" xlink:title="TagMap.ts">
<path fill="#ddfeff" stroke="black" d="M236.21,-618.62C236.21,-618.62 190.29,-618.62 190.29,-618.62 187.08,-618.62 183.88,-615.42 183.88,-612.21 183.88,-612.21 183.88,-605.79 183.88,-605.79 183.88,-602.58 187.08,-599.38 190.29,-599.38 190.29,-599.38 236.21,-599.38 236.21,-599.38 239.42,-599.38 242.62,-602.58 242.62,-605.79 242.62,-605.79 242.62,-612.21 242.62,-612.21 242.62,-615.42 239.42,-618.62 236.21,-618.62"/>
<text text-anchor="start" x="191.88" y="-606.08" font-family="Helvetica,sans-Serif" font-size="9.00">TagMap.ts</text>
</a>
</g>
</g>
<!-- src/objects/tag/TagMap.ts&#45;&gt;src/objects/nu/TagFactory.ts -->
<g id="edge45" class="edge">
<title>src/objects/tag/TagMap.ts&#45;&gt;src/objects/nu/TagFactory.ts</title>
<path fill="none" stroke="#000000" stroke-width="2" stroke-opacity="0.200000" d="M243.04,-609.99C252.43,-611.82 262.03,-615.58 268.25,-623 282.99,-640.6 263.58,-706.85 276.25,-726 280.6,-732.57 286.87,-737.79 293.69,-741.91"/>
<polygon fill="#000000" fill-opacity="0.200000" stroke="#000000" stroke-width="2" stroke-opacity="0.200000" points="292.29,-743.54 298.57,-744.52 294.27,-739.84 292.29,-743.54"/>
</g>
<!-- src/objects/tag/TagMap.ts&#45;&gt;src/objects/nu/Tag.ts -->
<g id="edge44" class="edge">
<title>src/objects/tag/TagMap.ts&#45;&gt;src/objects/nu/Tag.ts</title>
<path fill="none" stroke="#000000" stroke-width="2" stroke-opacity="0.200000" d="M242.97,-599.98C253.35,-597.15 265.22,-594.4 276.25,-593 324.53,-586.87 345.07,-566.29 385.75,-593 435.47,-625.65 450.36,-701.62 454.68,-737.11"/>
<polygon fill="#000000" fill-opacity="0.200000" stroke="#000000" stroke-width="2" stroke-opacity="0.200000" points="452.58,-737.22 455.31,-742.96 456.76,-736.77 452.58,-737.22"/>
</g>
<!-- src/objects/tag/TagTray.ts -->
<g id="node35" class="node">
<title>src/objects/tag/TagTray.ts</title>
<g id="a_node35"><a xlink:href="src/objects/tag/TagTray.ts" xlink:title="TagTray.ts">
<path fill="#ddfeff" stroke="black" d="M236.21,-587.62C236.21,-587.62 190.29,-587.62 190.29,-587.62 187.08,-587.62 183.88,-584.42 183.88,-581.21 183.88,-581.21 183.88,-574.79 183.88,-574.79 183.88,-571.58 187.08,-568.38 190.29,-568.38 190.29,-568.38 236.21,-568.38 236.21,-568.38 239.42,-568.38 242.62,-571.58 242.62,-574.79 242.62,-574.79 242.62,-581.21 242.62,-581.21 242.62,-584.42 239.42,-587.62 236.21,-587.62"/>
<text text-anchor="start" x="191.88" y="-575.08" font-family="Helvetica,sans-Serif" font-size="9.00">TagTray.ts</text>
</a>
</g>
</g>
<!-- src/objects/tag/TagTray.ts&#45;&gt;src/objects/nu/TagFactory.ts -->
<g id="edge47" class="edge">
<title>src/objects/tag/TagTray.ts&#45;&gt;src/objects/nu/TagFactory.ts</title>
<path fill="none" stroke="#000000" stroke-width="2" stroke-opacity="0.200000" d="M242.87,-579.43C252.36,-581.41 262.07,-585.36 268.25,-593 286.87,-616.02 260.13,-701.17 276.25,-726 280.54,-732.61 286.78,-737.85 293.59,-741.97"/>
<polygon fill="#000000" fill-opacity="0.200000" stroke="#000000" stroke-width="2" stroke-opacity="0.200000" points="292.19,-743.6 298.47,-744.58 294.18,-739.9 292.19,-743.6"/>
</g>
<!-- src/objects/tag/TagTray.ts&#45;&gt;src/objects/tag/Legend.ts -->
<g id="edge49" class="edge">
<title>src/objects/tag/TagTray.ts&#45;&gt;src/objects/tag/Legend.ts</title>
<path fill="none" stroke="#000000" stroke-width="2" stroke-opacity="0.200000" d="M242.93,-585.43C259.34,-589.67 280.09,-595.05 297.64,-599.59"/>
<polygon fill="#000000" fill-opacity="0.200000" stroke="#000000" stroke-width="2" stroke-opacity="0.200000" points="296.7,-601.51 303.03,-600.98 297.75,-597.45 296.7,-601.51"/>
</g>
<!-- src/objects/tag/TagTray.ts&#45;&gt;src/objects/nu/Tag.ts -->
<g id="edge46" class="edge">
<title>src/objects/tag/TagTray.ts&#45;&gt;src/objects/nu/Tag.ts</title>
<path fill="none" stroke="#000000" stroke-width="2" stroke-opacity="0.200000" d="M242.99,-574.02C285.69,-568.73 363.29,-561.72 385.75,-577 439.98,-613.9 452.57,-699.51 455.49,-737.39"/>
<polygon fill="#000000" fill-opacity="0.200000" stroke="#000000" stroke-width="2" stroke-opacity="0.200000" points="453.37,-737.06 455.85,-742.91 457.56,-736.79 453.37,-737.06"/>
</g>
<!-- src/objects/tag/TagTray.ts&#45;&gt;src/objects/SettingsManager.ts -->
<g id="edge48" class="edge">
<title>src/objects/tag/TagTray.ts&#45;&gt;src/objects/SettingsManager.ts</title>
<path fill="none" stroke="#000000" stroke-width="2" stroke-opacity="0.200000" d="M243.09,-579.84C252.38,-581.88 261.89,-585.76 268.25,-593 284.84,-611.89 259.5,-630.25 276.25,-649 277.27,-650.14 278.37,-651.2 279.52,-652.19"/>
<polygon fill="#000000" fill-opacity="0.200000" stroke="#000000" stroke-width="2" stroke-opacity="0.200000" points="278.08,-653.75 284.24,-655.34 280.42,-650.26 278.08,-653.75"/>
</g>
</g>
</svg>
